# xmcd
#
# Track frame offsets: 
#        150
#        21506
#        42442
#        59600
#        81825
#        102439
#        118099
#        146133
#        166808
#        180930
#
# Disc length: 2701 seconds
#
# Revision: 0
# Processed by: cddbd v1.5.2PL0 Copyright (c) Steve Scherf et al.
# Submitted via: ExactAudioCopyFreeDBPlugin 1.0
#
DISCID=8a0a8b0a
DTITLE=Eb and Sparrow - Eb and Sparrow
DYEAR=2014
DGENRE=New Zealand: Country/Blues
TTITLE0=Deadbeats
TTITLE1=Quietly We Tread
TTITLE2=Big Train
TTITLE3=Shadowlands
TTITLE4=Calling Calling
TTITLE5=This One Time
TTITLE6=I Was High
TTITLE7=The River
TTITLE8=Not Tonight
TTITLE9=Beware Fine Girls
EXTD=
EXTT0=
EXTT1=
EXTT2=
EXTT3=
EXTT4=
EXTT5=
EXTT6=
EXTT7=
EXTT8=
EXTT9=
PLAYORDER=
